<svg width="285" height="288" viewBox="0 0 285 288" fill="none" xmlns="http://www.w3.org/2000/svg">
<g clip-path="url(#clip0_549_6243)">
<path d="M102.065 281.234C100.801 281.701 99.5372 282.167 98.2586 281.999C99.8163 274.47 99.2374 273.88 92 274.582C92.0023 272.778 92.0039 271.391 92.2038 269.651C92.773 266.178 92.9886 263.027 93.5419 259.938C95.8281 247.174 98.3303 234.448 100.487 221.663C101.024 218.481 100.568 215.131 100.568 210.567C96.7845 213.818 94.3549 215.906 92.0122 217.652C92.3924 215.185 92.6857 213.061 93.0125 210.553C97.9286 194.901 102.649 179.576 107.768 164.385C110.081 157.522 113.188 150.925 116.279 144.31C118.44 144.893 120.259 145.374 122.056 146.333C121.472 153.245 121.324 159.749 120.226 166.088C119.182 172.112 116.92 177.914 115.609 183.905C114.382 189.513 114.132 195.17 118.076 200.461C117.783 202.317 117.461 203.759 117.336 205.218C116.827 211.139 116.379 217.066 115.637 223.109C114.92 223.839 114.473 224.451 113.98 225.451C112.648 231.524 111.362 237.21 110.056 243.324C109.311 247.956 108.903 252.246 107.767 256.334C106.738 260.037 107.724 262.366 110.995 264.25C110.993 264.671 110.992 264.84 110.71 265.03C109.953 265.71 109.477 266.367 108.949 267.32C108.598 269.436 108.298 271.257 107.996 273.261C107.993 273.445 107.997 273.813 107.821 274.103C107.43 275.26 107.215 276.126 106.998 276.995C106.996 276.998 106.992 277.003 106.637 276.999C102.316 275.859 101.882 278.24 102.065 281.234Z" fill="#9E4230"/>
<path d="M37.0439 29.9722C44.5144 31.2167 51.9863 32.4525 59.4548 33.7087C64.5023 34.5578 69.545 35.4357 74.9861 36.9467C76.937 38.372 78.4145 39.5512 80.0584 39.8684C96.3508 43.0127 112.671 46.0144 128.818 49.3626C127.291 49.9125 125.889 50.4944 124.572 50.3414C118.686 49.6573 112.83 48.7125 106.951 47.9585C99.714 47.0304 92.47 46.1511 85.2191 45.3397C79.4812 44.6977 73.7276 43.753 67.982 43.7597C63.2975 43.7652 58.6328 45.2025 53.9251 45.5898C49.9958 45.9131 45.9882 45.924 42.0687 45.5346C38.7023 45.2001 35.4115 44.1037 31.9005 43.0066C27.8885 41.0512 22.9053 40.1265 26.8417 33.8909C30.4384 32.4861 33.7411 31.2291 37.0439 29.9722Z" fill="#A7492F"/>
<path d="M263.039 164.103C260.354 169.625 255.28 172.033 248.851 170.851C232.566 167.854 216.259 164.969 200.001 161.834C187.504 159.424 175.068 156.701 162.528 153.744C165.601 153.372 168.75 153.372 172.594 153.372C168.232 150.72 164.628 148.528 161.289 146.263C167.901 147.517 174.248 148.846 180.88 150.396C182.095 150.691 183.024 150.764 184.29 150.869C185.075 150.941 185.524 150.982 186.162 151.24C186.895 151.615 187.439 151.771 188.219 151.852C188.903 151.563 189.351 151.349 189.938 151.441C190.3 151.984 190.493 152.391 190.751 152.437C205.426 155.069 220.106 157.671 235.126 160.464C239.235 161.159 243.005 161.665 246.837 162.167C246.9 162.164 246.948 162.047 247.055 162.233C247.376 162.619 247.628 162.743 248.296 162.855C253.477 163.225 258.28 163.528 263.137 163.91C263.191 163.989 263.039 164.103 263.039 164.103Z" fill="#571836"/>
<path d="M174.871 22.944C181.348 22.226 187.826 21.508 194.859 21.1487C195.919 21.7001 196.423 21.8928 196.927 22.0855C196.927 22.0855 196.983 22.0048 197.044 22.2686C197.282 22.8221 197.537 23.0038 197.868 23.0776C197.868 23.0776 197.926 23.089 197.871 23.5186C197.744 25.4325 197.976 27.0112 197.55 28.3862C194.41 38.5331 191.138 48.6394 187.645 58.937C184.582 58.3758 181.781 57.6362 179.05 56.543C179.972 51.6439 180.879 47.1066 181.59 42.539C181.656 42.1171 180.478 41.5015 179.523 41.0166C177.685 42.2434 175.623 43.135 174.84 44.6764C173.206 47.8957 172.247 51.4579 170.61 54.8997C169.137 54.8957 168.066 54.8711 167.031 54.474C168.143 50.8409 169.325 47.6108 170.27 44.3129C171.919 38.5606 173.421 32.7665 175.045 26.6852C175.026 25.235 174.949 24.0895 174.871 22.944Z" fill="#A8482F"/>
<path d="M81.9898 136.79C68.5075 133.736 55.0074 130.759 41.5495 127.602C32.9605 125.587 24.4481 123.248 15.8759 121.158C3.71642 118.194 2.37812 114.11 5.49467 102.793C6.27583 99.9566 7.43165 97.2233 8.7794 94.5786C9.46012 95.8809 9.77671 97.0472 10.0826 98.3991C10.0718 98.5848 10.0332 98.9567 9.82092 99.2393C7.75907 102.501 7.97542 105.362 10.0683 108.311C10.0408 108.507 10.0133 108.901 10.1752 109.189C11.6356 110.603 12.934 111.728 14.376 112.723C14.695 112.402 14.8601 112.201 15.0049 111.995C14.9953 111.999 15.0049 112.021 15.3136 112.205C16.9702 112.969 18.2673 113.765 19.6736 114.094C38.4027 118.481 57.1471 122.802 76.0991 127.335C76.8633 127.649 77.416 127.768 78.2247 127.916C78.6512 127.966 78.8217 127.987 79.3287 128.181C82.4407 129.25 85.2162 130.145 87.6643 131.229C84.1845 131.666 81.0321 131.915 76.7776 132.251C79.1982 134.359 80.594 135.574 81.9898 136.79Z" fill="#551837"/>
<path d="M82.2237 136.878C80.5976 135.574 79.2019 134.359 76.7812 132.251C81.0357 131.915 84.1881 131.666 88.0729 131.26C95.9297 132.678 103.054 134.252 110.575 135.868C114.636 136.599 118.3 137.288 122.386 137.981C127.211 138.664 131.614 139.344 136.145 140.371C140.816 141.787 145.359 142.855 150.294 144.002C154.133 144.833 157.58 145.585 161.027 146.337C164.631 148.528 168.235 150.72 172.597 153.372C168.752 153.372 165.603 153.372 162.249 153.61C161.578 153.885 161.112 153.923 159.946 153.98C158.78 153.995 158.314 153.99 157.593 153.729C154.561 152.979 151.784 152.484 148.712 151.748C144.609 150.682 140.8 149.856 136.607 148.971C133.484 148.291 130.743 147.669 127.627 146.99C125.526 146.573 123.803 146.213 122.08 145.854C120.262 145.373 118.443 144.893 115.895 144.218C111.769 143.369 108.374 142.715 104.979 142.062C104.812 142.022 104.646 141.982 104.093 141.562C97.3798 136.742 90.3994 135.656 82.9199 137.128C82.9199 137.128 82.4541 136.966 82.2237 136.878Z" fill="#5B1B34"/>
<path d="M104.985 142.469C108.377 142.715 111.772 143.369 115.554 144.115C113.194 150.925 110.086 157.521 107.773 164.385C102.654 179.576 97.9344 194.9 92.7928 210.825C91.6813 213.977 90.8286 216.475 89.9842 218.983C89.9925 218.993 89.9669 218.99 89.6899 219.184C88.2931 221.593 87.1733 223.807 85.7589 226.008C85.2679 225.986 85.0714 225.977 84.875 225.969C88.1116 212.593 91.3472 199.217 94.585 185.842C98.0521 171.52 101.521 157.198 104.985 142.469Z" fill="#AE4B2E"/>
<path d="M273.078 127.051C272.604 128.339 272.129 129.627 270.982 130.921C264.725 130.28 259.141 129.634 253.254 128.975C252.15 128.16 251.281 127.414 250.565 126.543C249.669 125.451 249.15 123.749 248.03 123.193C243.214 120.803 238.338 118.458 233.288 116.643C229.437 115.26 225.206 114.953 221.31 113.667C219.351 113.02 217.759 111.261 216.406 109.966C221.21 109.95 225.609 109.972 230.382 109.996C231.504 110.002 232.253 110.006 233.222 110.187C233.965 110.574 234.487 110.784 235.406 111.03C238.203 111.375 240.602 111.684 243.297 112.111C245.061 112.156 246.528 112.083 248.274 112.25C254.81 114.042 261.066 115.593 267.605 117.335C269.87 119.34 271.853 121.155 273.836 122.971C273.836 122.971 273.98 123.404 273.794 123.844C273.431 125.206 273.255 126.129 273.078 127.051Z" fill="#AB492C"/>
<path d="M128.914 46.8682C129.623 44.0425 130.346 41.2204 131.037 38.3905C132.961 30.5174 138.223 26.3195 146.379 25.9653C149.299 25.8385 152.203 25.3593 155.539 25.4945C153.916 34.0735 151.87 42.199 149.507 50.4457C142.431 49.334 135.673 48.1011 128.914 46.8682Z" fill="#B8512E"/>
<path d="M157.844 153.984C158.31 153.99 158.776 153.995 159.592 154C150.245 183.92 140.57 213.848 130.843 243.759C127.461 254.156 124.186 264.597 120.423 274.857C117.281 283.424 108.333 286.656 102.226 281.545C101.881 278.24 102.314 275.859 106.626 277.395C107.108 279.298 107.246 280.803 107.384 282.308C107.902 282.641 108.419 282.973 108.937 283.306C111.294 281.208 113.651 279.11 116.298 276.823C117.691 274.645 119.134 272.77 119.84 270.649C124.033 258.071 128.386 245.53 132.044 232.793C135.899 219.375 142.336 206.58 142.354 192.175C142.355 191.563 142.828 190.952 143.342 190.146C144.631 188.556 146.054 187.304 146.623 185.741C150.465 175.192 154.125 164.577 157.844 153.984Z" fill="#66223B"/>
<path d="M128.539 46.904C135.679 48.1011 142.437 49.334 149.718 50.6456C152.166 51.0999 154.091 51.4755 156.395 51.9434C160.182 52.9727 163.59 53.9097 166.999 54.8467C168.07 54.8712 169.141 54.8958 170.846 55.1081C172.928 55.5682 174.376 55.8405 176.071 56.3493C177.206 56.6895 178.095 56.7931 178.985 56.8967C181.785 57.6363 184.586 58.3759 187.967 59.0499C189.384 59.2225 190.221 59.4607 191.058 59.6989C191.369 59.9302 191.679 60.1615 191.77 60.7854C191.031 61.5603 190.512 61.9426 189.575 62.2569C186.734 61.7355 184.319 61.2473 181.891 60.8353C175.309 59.7186 168.643 58.9669 162.155 57.4527C154.068 55.5652 146.124 53.0594 137.781 50.6423C134.624 49.9948 131.805 49.5255 128.987 49.0563C112.675 46.0143 96.3547 43.0126 80.0623 39.8683C78.4184 39.5511 76.9408 38.3719 75.2109 37.2694C77.1689 37.1727 79.3019 37.4006 81.4351 37.6256C82.5639 37.7447 83.7134 37.7614 84.8189 37.9912C90.4544 39.1621 96.0528 40.531 101.715 41.5453C105.724 42.2634 109.874 42.2404 113.853 43.0683C118.681 44.0729 123.394 45.6248 128.539 46.904Z" fill="#DB9058"/>
<path d="M268.075 78.981C268.075 78.981 268.544 79.0438 268.921 79.4039C270.929 80.4921 272.56 81.2201 274.503 82.0766C277.918 84.33 279.523 87.1519 278.584 90.9143C277.194 90.0629 275.825 89.5177 275.107 88.5091C271.703 83.7333 266.729 83.4643 261.512 82.8758C255.151 82.1584 248.885 80.5618 242.601 79.2339C239.86 78.6546 237.183 77.7772 234.468 77.0711C226.648 75.0379 218.823 73.023 211.07 70.6737C211.464 69.5091 211.789 68.6717 212.518 67.8506C224.378 70.3383 235.817 72.8863 247.3 75.2128C249.441 75.6463 251.761 75.1904 253.998 75.1449C258.143 76.0396 262.288 76.9343 266.893 78.1376C267.573 78.6525 267.814 78.8308 268.075 78.981Z" fill="#B95532"/>
<path d="M156.012 51.8511C154.087 51.4755 152.162 51.0998 150.031 50.5243C151.872 42.1989 153.918 34.0734 155.974 25.5562C161.561 24.585 167.014 21.3982 172.792 24.3746C173.034 24.4991 173.783 23.6384 174.583 23.0903C174.949 24.0895 175.027 25.235 174.854 26.8516C173.366 27.1628 172.128 27.0029 171.627 26.9381C169.746 29.361 167.899 31.5164 166.301 33.8435C162.378 39.5579 156.636 44.2496 156.012 51.8511Z" fill="#AB492C"/>
<path d="M12.1897 90.9035C8.14345 87.7379 8.95267 83.7008 10.3103 79.6799C11.9494 74.8254 13.7709 70.0326 15.7453 64.5718C13.3448 61.5263 16.6337 41.9899 21.7571 37.0823C22.1595 36.8274 22.3833 36.9463 22.3659 37.3096C22.2838 40.0715 22.2191 42.4703 22.1421 45.1331C22.3299 45.8836 22.5301 46.37 22.5376 47.1856C21.8896 49.9045 21.9842 52.5963 20.8705 54.6246C18.1055 59.66 20.5702 61.3027 24.8665 62.4724C22.5571 64.9561 20.3511 67.1186 18.1068 69.6664C17.6724 72.0989 17.2763 74.1461 16.8108 76.5381C16.08 78.8474 15.4185 80.8118 14.5579 83.031C14.5914 84.4935 14.824 85.7014 14.9561 87.2067C13.9669 88.6373 13.0783 89.7704 12.1897 90.9035Z" fill="#5A182D"/>
<path d="M92.0052 270.003C92.0036 271.39 92.0021 272.778 91.8076 274.889C91.4053 277.049 91.196 278.486 90.9867 279.923C87.2615 278.109 82.4423 278.167 80.0547 273.031C80.9024 265.934 81.9828 259.473 83.3788 253.197C84.104 257.157 84.5136 260.931 84.7267 262.895C87.783 265.88 89.8941 267.941 92.0052 270.003Z" fill="#973D2F"/>
<path d="M253.698 75.0228C251.759 75.1903 249.439 75.6463 247.299 75.2127C235.815 72.8863 224.376 70.3383 212.178 67.6769C204.287 65.7663 197.139 64.0456 189.992 62.3248C190.511 61.9425 191.029 61.5603 191.854 61.0662C200.574 62.6735 208.993 64.3693 217.4 66.1187C225.056 67.7118 232.73 69.2389 240.339 71.0364C244.75 72.0786 249.05 73.5968 253.698 75.0228Z" fill="#DA844A"/>
<path d="M270.851 131.896C273.876 141.848 270.439 151.131 267.668 160.415C267.235 161.867 265.123 162.818 263.414 164.052C263.04 164.104 263.192 163.989 263.089 163.544C264.091 159.492 265.196 155.885 266.463 151.923C266.77 148.987 266.528 146.313 267.126 143.842C269.126 135.578 269.241 135.606 261.029 132.657C260.21 132.005 259.617 131.544 259.414 131C263.486 131.243 267.169 131.57 270.851 131.896Z" fill="#DB9058"/>
<path d="M191.058 59.3165C190.219 59.4606 189.382 59.2224 188.227 58.8713C191.139 48.6394 194.412 38.5331 197.552 28.3862C197.978 27.0112 197.745 25.4325 197.846 23.5322C201.446 25.4135 200.031 28.5748 199.188 31.4976C196.545 40.6623 193.778 49.7913 191.058 59.3165Z" fill="#66223B"/>
<path d="M274.003 122.639C271.853 121.155 269.87 119.34 267.953 117.315C268.96 116.993 269.9 116.881 271.202 116.683C276.545 112.502 275.168 107.288 274.441 102.072C276.516 101.896 278.255 101.778 279.995 101.66C278.495 108.668 278.479 116.093 274.003 122.639Z" fill="#DB9058"/>
<path d="M83.0644 253.012C81.984 259.473 80.9035 265.933 79.8995 272.708C75.0756 271.452 76.2203 267.312 76.2974 263.05C78.403 258.314 80.2407 254.268 82.2617 250.455C82.6514 251.463 82.8579 252.238 83.0644 253.012Z" fill="#65162A"/>
<path d="M278.903 91.0069C279.521 87.1518 277.916 84.33 274.474 81.7846C274.125 80.9732 274.114 80.5821 274.103 80.1909C282.129 81.2283 285.556 87.2306 280.843 98.222C277.232 98.3761 274.338 98.2627 271.906 98.1525C277.482 98.4572 279.371 95.8096 278.903 91.0069Z" fill="#CB7640"/>
<path d="M82.0779 250.222C80.2402 254.268 78.4025 258.314 76.3516 262.621C77.9339 254.56 79.7045 246.233 81.5361 237.92C82.3828 234.077 83.3485 230.26 84.5649 226.2C85.066 225.977 85.2625 225.986 85.7113 226.4C85.2941 230.203 84.6244 233.6 83.7602 237.325C83.0697 241.843 82.5738 246.032 82.0779 250.222Z" fill="#A6462D"/>
<path d="M271.446 98.1495C274.339 98.2628 277.233 98.3762 280.497 98.4643C280.73 99.3818 280.59 100.324 280.222 101.464C278.253 101.778 276.514 101.896 274.149 101.94C268.735 100.582 263.944 99.2994 259.5 97.9419C263.713 97.9614 267.579 98.0554 271.446 98.1495Z" fill="#5A1514"/>
<path d="M91.3268 280.072C91.1983 278.486 91.4076 277.049 91.8091 275.305C99.2395 273.88 99.8184 274.47 98.0932 281.734C95.8485 281.476 93.7565 280.849 91.3268 280.072Z" fill="#973E31"/>
<path d="M83.2031 137.377C90.402 135.656 97.3824 136.742 103.851 141.487C97.1569 140.402 90.3204 139.014 83.2031 137.377Z" fill="#551837"/>
<path d="M36.9094 29.6144C33.7461 31.229 30.4433 32.486 26.5377 34.0138C24.7522 35.1719 23.5695 36.0591 22.3869 36.9463C22.3869 36.9463 22.1631 36.8274 22.0469 36.8755C23.3989 31.9316 26.9881 29.1545 31.8354 28.1518C33.3397 27.8406 35.1174 28.8512 36.9094 29.6144Z" fill="#DA844A"/>
<path d="M270.918 131.74C267.171 131.57 263.489 131.243 259.057 130.939C256.723 130.304 255.139 129.646 253.555 128.989C259.139 129.635 264.723 130.28 270.667 131.087C271.027 131.248 270.984 131.584 270.918 131.74Z" fill="#5A1514"/>
<path d="M12.1184 91.1505C13.0747 89.7704 13.9633 88.6373 15.2979 87.3198C18.7782 88.2149 21.8125 89.2944 24.8362 90.4337C24.8256 90.4936 24.8981 90.5913 24.552 90.6529C23.373 91.0903 22.5402 91.4661 21.5854 91.8638C21.4635 91.8857 21.2363 91.9843 21.0285 91.6228C17.9343 91.8796 15.0478 92.498 12.1118 92.8126C12.0285 92.3064 11.9947 92.104 11.9609 91.9016C11.9908 91.7335 12.0207 91.5655 12.1184 91.1505Z" fill="#5A1514"/>
<path d="M11.6628 91.9834C12.0008 92.104 12.0346 92.3064 12.0684 93.0971C12.0465 94.7532 12.0246 95.8209 11.8164 97.1184C11.1198 97.6367 10.6093 97.9251 10.0988 98.2135C9.78217 97.0472 9.46558 95.8809 9.07031 94.361C9.78063 93.36 10.5696 92.7126 11.6628 91.9834Z" fill="#5A182D"/>
<path d="M273.724 80.1092C274.11 80.5821 274.121 80.9733 274.159 81.6563C272.554 81.2201 270.923 80.4921 269.141 79.4734C270.443 79.4643 271.896 79.7458 273.724 80.1092Z" fill="#B8512C"/>
<path d="M273.405 127.151C273.255 126.129 273.431 125.206 273.812 124.072C273.921 124.991 273.826 126.121 273.405 127.151Z" fill="#DB9058"/>
<path d="M196.793 21.8248C196.424 21.893 195.921 21.7003 195.219 21.3194C195.566 21.2754 196.112 21.4196 196.793 21.8248Z" fill="#66223B"/>
<path d="M267.983 78.7513C267.814 78.8308 267.573 78.6525 267.195 78.2856C267.41 78.0683 267.694 78.2005 267.983 78.7513Z" fill="#B8512C"/>
<path d="M197.808 22.839C197.54 23.0038 197.286 22.8221 197.023 22.3086C197.292 22.1238 197.561 22.2958 197.808 22.839Z" fill="#66223B"/>
<path d="M143.088 190.34C142.835 190.952 142.362 191.563 142.361 192.175C142.343 206.58 135.906 219.375 132.051 232.793C128.392 245.53 124.04 258.071 119.847 270.649C119.14 272.77 117.697 274.645 116.157 276.539C116.021 274.837 116.151 273.175 116.652 271.634C122.619 253.267 128.68 234.931 134.605 216.551C135.434 213.979 135.666 211.214 136.177 208.529C127.953 207.164 128.007 207.178 126.242 213.897C124.846 219.209 123.412 224.516 121.792 229.763C118.264 241.196 114.606 252.588 111.001 263.997C107.73 262.366 106.744 260.037 107.772 256.334C108.908 252.246 109.317 247.955 110.366 243.19C112.442 239.432 114.196 236.236 115.971 233.02C115.994 233 116.034 232.957 116.15 232.73C115.521 230.022 114.776 227.543 114.031 225.063C114.478 224.451 114.925 223.839 115.842 223.145C117.31 222.389 118.308 221.716 119.54 220.883C114.087 218.477 119.709 217.747 120.369 216.649C119.684 214.662 118.672 213.13 118.736 211.646C118.918 207.453 119.541 203.279 119.971 198.74C120.299 195.922 120.645 193.46 121.393 190.999C122.861 190.997 123.928 190.995 124.998 191.438C124.999 194.564 124.999 197.244 124.999 199.924C124.845 199.749 124.692 199.574 124.538 199.399C127.018 193.596 129.499 187.793 131.987 181.99C131.995 181.991 132.004 181.979 132.394 181.99C134.539 182.334 136.295 182.667 138.288 183.232C140.046 185.756 141.567 188.048 143.088 190.34Z" fill="#8F3730"/>
<path d="M110.998 264.25C114.604 252.588 118.261 241.196 121.79 229.763C123.409 224.516 124.844 219.209 126.239 213.897C128.004 207.178 127.95 207.164 136.175 208.529C135.664 211.214 135.431 213.979 134.602 216.551C128.677 234.931 122.617 253.267 116.65 271.634C116.149 273.175 116.019 274.837 115.864 276.728C113.655 279.11 111.298 281.208 108.941 283.306C108.424 282.973 107.906 282.641 107.388 282.308C107.25 280.803 107.112 279.298 106.984 277.398C106.995 277.002 106.999 276.998 107.187 276.716C107.584 275.56 107.792 274.686 108 273.812C108 273.812 107.996 273.445 108.224 272.984C108.957 270.698 109.463 268.874 110.154 266.824C110.557 266.069 110.775 265.539 110.994 265.009C110.995 264.84 110.996 264.671 110.998 264.25Z" fill="#993E33"/>
<path d="M82.2656 250.455C82.5783 246.032 83.0742 241.843 84.0193 237.321C84.6378 236.983 84.8072 236.977 84.9996 237.207C85.2946 237.721 85.5664 238.001 85.8383 238.281C85.9369 238.149 86.0857 238.032 86.1268 237.884C87.4129 233.26 88.6885 228.632 89.966 223.993C89.9663 223.98 89.9893 223.969 90.1765 223.727C90.2786 222.378 90.1936 221.271 90.0757 219.87C90.0172 219.381 89.9916 219.186 89.966 218.99C89.966 218.99 89.9916 218.993 90.2333 218.87C90.96 218.496 91.4451 218.245 91.9302 217.994C94.3598 215.906 96.7893 213.818 100.572 210.567C100.572 215.131 101.029 218.481 100.492 221.663C98.3352 234.448 95.833 247.174 93.5468 259.938C92.9934 263.027 92.7778 266.177 92.2086 269.651C89.8992 267.941 87.7881 265.88 84.7318 262.895C84.5187 260.931 84.1091 257.157 83.3839 253.197C82.8618 252.237 82.6553 251.463 82.2656 250.455Z" fill="#973E31"/>
<path d="M120.986 190.999C120.639 193.46 120.292 195.922 119.714 198.818C119.034 199.519 118.585 199.787 118.136 200.054C114.131 195.17 114.381 189.513 115.608 183.905C116.919 177.914 119.181 172.112 120.225 166.088C121.323 159.748 121.471 153.244 122.055 146.333C123.799 146.213 125.522 146.573 127.588 147.381C125.621 157.887 123.312 167.945 120.975 178.368C120.96 182.822 120.973 186.91 120.986 190.999Z" fill="#A74633"/>
<path d="M118.078 200.461C118.588 199.787 119.037 199.519 119.736 199.174C119.537 203.279 118.914 207.452 118.733 211.646C118.669 213.13 119.68 214.662 120.365 216.649C119.706 217.747 114.083 218.477 119.537 220.883C118.305 221.716 117.307 222.389 116.109 223.027C116.381 217.066 116.829 211.139 117.338 205.218C117.463 203.759 117.785 202.317 118.078 200.461Z" fill="#5A1514"/>
<path d="M115.947 233.04C114.193 236.236 112.44 239.432 110.383 242.762C111.365 237.21 112.651 231.524 113.983 225.45C114.774 227.543 115.519 230.022 116.108 232.677C115.953 232.852 115.947 233.04 115.947 233.04Z" fill="#772823"/>
<path d="M92.0108 217.651C91.4389 218.245 90.9538 218.496 90.2188 218.86C90.8215 216.475 91.6741 213.977 92.7522 211.208C92.6843 213.06 92.391 215.185 92.0108 217.651Z" fill="#853232"/>
<path d="M109.97 267.049C109.463 268.874 108.957 270.699 108.227 272.8C108.301 271.257 108.601 269.436 109.193 267.325C109.487 267.036 109.97 267.049 109.97 267.049Z" fill="#66223B"/>
<path d="M110.15 266.824C109.966 267.049 109.484 267.035 109.242 267.03C109.477 266.367 109.953 265.71 110.71 265.03C110.772 265.539 110.553 266.069 110.15 266.824Z" fill="#8F3730"/>
<path d="M107.822 274.103C107.79 274.686 107.582 275.56 107.188 276.713C107.216 276.126 107.431 275.26 107.822 274.103Z" fill="#66223B"/>
<path d="M105.497 273.488C105.479 273.49 105.516 273.486 105.497 273.488V273.488Z" fill="#66223B"/>
<path d="M22.7269 46.8565C22.5267 46.3701 22.3265 45.8837 22.4896 45.0354C25.9303 44.2305 29.0078 43.7874 32.0853 43.3442C35.4095 44.1037 38.7002 45.2001 42.0667 45.5346C45.9861 45.924 49.9938 45.9131 53.9231 45.5898C58.6307 45.2024 63.2955 43.7652 67.9799 43.7597C73.7256 43.7529 79.4791 44.6977 85.2171 45.3397C92.468 46.151 99.7119 47.0304 106.949 47.9585C112.828 48.7125 118.684 49.6572 124.57 50.3414C125.887 50.4944 127.289 49.9124 128.816 49.3626C131.799 49.5256 134.618 49.9948 137.653 50.9451C138.655 52.6443 139.173 54.4648 140.281 54.9564C142.654 56.0093 145.512 55.9958 147.844 57.1056C152.078 59.12 157.123 60.7757 159.896 64.1636C163.224 68.2285 166.901 70.4028 171.622 71.6582C176.899 73.0617 182.131 74.6444 187.433 75.9419C191.035 76.8232 193.374 78.6929 193.514 82.4127C182.462 78.9213 171.815 75.4593 161.132 72.117C159.136 71.4927 156.99 71.3483 154.527 70.9748C147.441 68.6879 140.741 66.4085 133.77 63.8781C124.997 61.7586 116.493 59.8901 107.704 57.8452C106.125 57.4988 104.832 57.3287 103.098 57.1291C97.0865 56.0185 91.3399 56.9114 85.9407 53.438C82.361 51.1351 77.1643 50.2784 71.8772 55.152C76.3697 56.576 80.1307 57.772 83.8943 58.9598C85.9096 59.5958 88.7214 59.5843 89.8151 60.9517C95.7056 68.3163 104.689 68.9443 112.543 70.7335C125.441 73.672 136.995 77.8682 144.623 88.9169C137.496 86.894 130.745 84.9498 123.628 82.9207C114.837 80.9019 106.411 78.9681 97.5697 77.0229C93.4377 76.3364 89.7203 75.6611 85.9122 74.6527C84.576 73.0663 83.4961 71.5681 82.0597 70.5975C66.5992 60.1504 48.0378 58.2076 30.9242 52.3051C27.4296 51.0998 24.5091 50.138 22.7269 46.8565Z" fill="#AE4B2E"/>
<path d="M31.9027 43.0065C29.012 43.7872 25.9345 44.2304 22.5062 44.7712C22.22 42.4702 22.2847 40.0715 22.3668 37.3095C23.5668 36.0591 24.7495 35.1719 26.2411 34.1616C22.9075 40.1264 27.8907 41.0511 31.9027 43.0065Z" fill="#DB9058"/>
<path d="M161.291 146.263C157.579 145.585 154.132 144.833 150.302 143.66C148.422 142.072 147.064 140.234 145.399 139.893C142.704 139.342 139.809 139.775 136.959 139.442C135.608 137.735 134.53 135.907 132.938 135.118C129.248 133.291 125.433 131.375 121.45 130.547C108.828 127.92 98.6532 120.602 88.0573 113.655C88.0277 112.872 88.0189 112.424 88.1525 111.633C90.2208 103.808 90.5725 103.564 98.6746 102.945C100.464 102.808 102.226 102.324 104.124 102.292C105.499 103.723 106.75 104.861 107.621 106.032C103.073 106.633 99.7385 108.241 100.233 113.165C100.574 116.56 100.936 120.411 106.407 120.076C116.654 122.469 126.505 124.837 136.385 127.074C146.905 129.456 157.454 131.714 168.035 134.373C171.829 142.841 179.384 145.364 187.054 147.875C188.202 148.251 188.896 150.014 189.8 151.135C189.353 151.349 188.905 151.563 188.155 151.645C187.227 151.35 186.601 151.186 185.975 151.023C185.526 150.982 185.077 150.942 184.176 150.623C182.682 150.288 181.639 150.232 180.597 150.175C174.25 148.846 167.903 147.518 161.291 146.263Z" fill="#8F3730"/>
<path d="M189.939 151.441C188.895 150.014 188.201 148.251 187.053 147.875C179.383 145.364 171.828 142.841 168.422 134.45C177.178 135.782 185.593 137.384 194.398 139.074C200.524 140.114 206.259 141.066 212.083 142.354C213.861 147.28 217.37 149.436 221.911 150.861C225.929 152.122 229.758 154.134 233.432 156.232C234.353 156.758 234.36 158.885 234.787 160.276C220.107 157.671 205.427 155.069 190.752 152.437C190.494 152.391 190.301 151.984 189.939 151.441Z" fill="#943B31"/>
<path d="M235.124 160.465C234.357 158.885 234.35 156.758 233.429 156.232C229.755 154.134 225.926 152.122 221.909 150.861C217.368 149.436 213.859 147.28 212.5 142.363C222.204 143.365 231.577 144.696 240.96 146.271C240.971 146.514 240.998 147.001 241.088 147.337C242.585 148.977 243.827 150.556 245.438 151.517C247.553 152.777 250.139 153.275 252.184 154.617C253.906 155.747 255.145 157.613 256.598 159.154C254.721 159.678 252.835 160.171 250.971 160.737C249.557 161.167 248.171 161.689 246.773 162.17C243.003 161.665 239.234 161.159 235.124 160.465Z" fill="#983E2F"/>
<path d="M246.841 162.167C248.177 161.689 249.562 161.166 250.976 160.737C252.84 160.171 254.727 159.678 256.603 159.154C255.15 157.613 253.911 155.747 252.189 154.617C250.144 153.275 247.558 152.777 245.444 151.516C243.832 150.556 242.59 148.977 241.516 147.34C249.999 148.764 258.151 150.521 266.303 152.278C265.199 155.885 264.094 159.492 263.038 163.465C258.284 163.528 253.481 163.225 248.15 162.719C247.411 162.342 247.188 162.185 246.952 162.047C246.952 162.047 246.904 162.164 246.841 162.167Z" fill="#9E4230"/>
<path d="M180.883 150.396C181.64 150.232 182.682 150.288 183.84 150.592C183.027 150.764 182.097 150.691 180.883 150.396Z" fill="#943B31"/>
<path d="M186.164 151.241C186.601 151.186 187.227 151.35 187.919 151.721C187.441 151.771 186.897 151.615 186.164 151.241Z" fill="#943B31"/>
<path d="M247.055 162.233C247.184 162.186 247.408 162.342 247.768 162.652C247.628 162.743 247.376 162.619 247.055 162.233Z" fill="#983E2F"/>
<path d="M156.391 51.9435C156.636 44.2498 162.378 39.5581 166.301 33.8437C167.898 31.5166 169.746 29.3612 171.627 26.9382C172.128 27.003 173.365 27.163 174.794 27.1565C173.421 32.7667 171.918 38.5608 170.27 44.3131C169.325 47.611 168.143 50.8411 167.031 54.4742C163.586 53.9097 160.178 52.9727 156.391 51.9435Z" fill="#A6462D"/>
<path d="M175.819 56.1128C174.371 55.8405 172.923 55.5682 171.242 55.0876C172.246 51.458 173.205 47.8958 174.839 44.6766C175.622 43.1351 177.684 42.2435 179.5 41.4075C178.495 46.5425 177.157 51.3277 175.819 56.1128Z" fill="#A1422F"/>
<path d="M176.07 56.3493C177.162 51.3276 178.5 46.5425 179.86 41.3667C180.482 41.5016 181.66 42.1172 181.594 42.5391C180.883 47.1067 179.976 51.644 179.053 56.5431C178.095 56.7931 177.206 56.6894 176.07 56.3493Z" fill="#772823"/>
<path d="M88.0791 113.99C98.6542 120.602 108.829 127.92 121.451 130.547C125.434 131.375 129.249 133.291 132.939 135.118C134.531 135.907 135.609 137.735 136.716 139.505C136.347 139.954 136.182 139.989 136.018 140.024C131.615 139.344 127.212 138.664 122.257 137.653C119.506 135.997 117.435 134.321 115.068 133.456C113.115 132.743 110.318 132.012 110.179 135.827C103.055 134.253 95.9305 132.678 88.4011 131.072C85.2206 130.145 82.4451 129.25 79.4711 127.836C80.6439 124.222 79.5717 122.358 76.4734 121.19C68.2975 118.109 60.0602 115.15 52.069 111.638C48.4413 110.044 45.338 107.257 42.4062 105.019C47.0317 105.889 51.2428 106.777 55.4648 107.608C66.3336 109.749 77.2073 111.865 88.0791 113.99Z" fill="#8A3432"/>
<path d="M41.9948 105.011C45.336 107.257 48.4393 110.044 52.0669 111.638C60.0582 115.15 68.2955 118.109 76.4714 121.19C79.5697 122.358 80.6419 124.222 79.1326 127.663C78.8241 127.987 78.6536 127.966 78.1458 127.693C77.169 127.341 76.5295 127.24 75.8901 127.14C57.1495 122.802 38.4051 118.481 19.676 114.094C18.2697 113.765 16.9726 112.969 15.2546 111.887C13.2616 110.556 11.6386 109.728 10.0156 108.901C10.0156 108.901 10.0432 108.507 10.2799 108.131C10.6929 105.24 10.8691 102.724 11.3337 99.9848C12.5708 99.6338 13.5713 99.2443 14.4604 99.4196C23.6488 101.231 32.8193 103.134 41.9948 105.011Z" fill="#853232"/>
<path d="M42.4077 105.019C32.8228 103.134 23.6523 101.231 14.4639 99.4195C13.5748 99.2443 12.5743 99.6338 11.1511 99.7879C10.4641 99.5287 10.2516 99.2426 10.0391 98.9566C10.0391 98.9566 10.0776 98.5846 10.0884 98.399C10.6096 97.925 11.1201 97.6366 11.9599 96.8438C13.1811 95.2255 14.0729 94.1116 15.3281 92.9993C17.0771 92.7619 18.4627 92.5229 20.1992 92.2193C20.7809 92.0979 21.0118 92.041 21.2427 91.9842C21.2427 91.9842 21.47 91.8856 21.8841 91.9856C23.1671 91.5874 24.0358 91.0893 24.9046 90.5912C24.9046 90.5912 24.832 90.4935 24.993 90.0931C29.0533 86.6991 31.3706 89.9757 33.624 91.9454C32.1678 91.9791 31.1091 91.9976 29.8107 92.0839C29.397 92.7867 29.2231 93.4216 29.2153 94.3715C29.9068 95.0656 30.3871 95.6784 30.9643 95.7898C46.9261 98.8713 62.8346 102.33 78.9038 104.696C84.1343 105.466 87.2286 106.687 88.0125 111.976C88.0213 112.424 88.0301 112.872 88.0597 113.655C77.2088 111.864 66.3351 109.749 55.4663 107.608C51.2442 106.777 47.0332 105.889 42.4077 105.019Z" fill="#983D31"/>
<path d="M9.82146 99.2393C10.2463 99.2427 10.4588 99.5288 10.8574 100.012C10.8673 102.724 10.691 105.24 10.3056 107.936C7.97595 105.362 7.7596 102.501 9.82146 99.2393Z" fill="#5A182D"/>
<path d="M10.1797 109.189C11.6407 109.728 13.2637 110.556 14.948 111.702C15.0094 112.021 14.9998 111.999 14.8584 112.121C14.5206 112.418 14.3605 112.621 14.2369 112.853C12.9385 111.728 11.6401 110.603 10.1797 109.189Z" fill="#5A182D"/>
<path d="M76.1016 127.335C76.5296 127.24 77.169 127.341 77.8898 127.664C77.4184 127.768 76.8657 127.649 76.1016 127.335Z" fill="#8A3432"/>
<path d="M14.3767 112.723C14.3567 112.621 14.5168 112.418 14.8643 112.117C14.8608 112.201 14.6957 112.402 14.3767 112.723Z" fill="#853232"/>
<path d="M121.391 191C120.978 186.91 120.965 182.822 121.294 178.246C126.755 168.182 131.873 158.606 136.992 149.03C140.801 149.856 144.61 150.683 148.553 152.076C148.069 154.334 147.488 156.039 146.827 157.712C143.889 165.148 140.927 172.576 137.606 180.01C135.493 180.669 133.748 181.324 132.003 181.979C132.003 181.979 131.993 181.991 131.653 182.079C129.207 185.109 127.101 188.051 124.994 190.992C123.927 190.995 122.859 190.998 121.391 191Z" fill="#983E32"/>
<path d="M137.977 180.007C140.93 172.576 143.891 165.148 146.829 157.712C147.491 156.039 148.071 154.334 148.849 152.316C151.787 152.484 154.564 152.979 157.596 153.729C154.132 164.577 150.472 175.192 146.631 185.741C146.061 187.304 144.638 188.556 143.349 190.146C141.567 188.048 140.047 185.756 138.278 182.857C138.012 181.503 137.994 180.755 137.977 180.007Z" fill="#9E4230"/>
<path d="M136.607 148.971C131.872 158.606 126.753 168.182 121.32 177.881C123.315 167.945 125.624 157.887 127.968 147.439C130.743 147.669 133.483 148.291 136.607 148.971Z" fill="#9D4130"/>
<path d="M136.141 140.371C136.178 139.989 136.342 139.954 136.75 139.855C139.805 139.775 142.701 139.342 145.395 139.893C147.06 140.234 148.419 142.072 149.906 143.58C145.355 142.855 140.811 141.787 136.141 140.371Z" fill="#DB9058"/>
<path d="M110.571 135.868C110.314 132.012 113.11 132.743 115.063 133.456C117.431 134.321 119.502 135.997 121.831 137.65C118.296 137.288 114.632 136.599 110.571 135.868Z" fill="#DB9058"/>
<path d="M89.686 219.184C89.9887 219.186 90.0143 219.381 90.0401 220.246C90.0224 221.933 90.0044 222.951 89.9864 223.969C89.9864 223.969 89.9633 223.98 89.6759 224.191C87.9169 228.592 86.4453 232.782 84.9736 236.972C84.8043 236.978 84.6349 236.983 84.2109 236.992C84.626 233.6 85.2956 230.203 86.0075 226.414C87.1694 223.807 88.2892 221.593 89.686 219.184Z" fill="#853232"/>
<path d="M145.004 88.9956C137.001 77.8681 125.447 73.672 112.548 70.7335C104.695 68.9443 95.7113 68.3162 89.8207 60.9516C88.727 59.5842 85.9152 59.5957 83.8999 58.9597C80.1363 57.7719 76.3753 56.576 71.8828 55.1519C77.1699 50.2783 82.3666 51.135 85.9463 53.4379C91.3455 56.9113 97.0921 56.0184 103.358 57.2527C105.032 57.611 106.01 57.8161 106.737 58.1992C105.633 58.937 104.78 59.4969 103.926 60.0568C104.038 60.5527 104.15 61.0486 104.262 61.5446C106.86 61.3319 109.458 61.1192 112.432 60.9421C119.888 62.0281 126.967 63.0786 134.046 64.129C140.746 66.4084 147.446 68.6878 154.598 71.3414C158.542 73.2643 161.922 75.1887 165.551 76.2901C175.915 79.4354 186.381 82.2461 196.517 85.3534C194.46 86.2953 191.656 85.9322 192.478 89.3792C193.888 95.2898 199.913 98.7538 206.317 96.9276C208.724 96.5357 210.848 96.2483 212.877 96.2502C212.809 97.1781 212.586 98.1763 212.905 98.4008C217.007 101.281 221.188 104.05 225.347 106.849C226.902 107.895 228.453 108.946 230.006 109.995C225.607 109.972 221.209 109.95 215.981 109.951C208.77 109.318 202.388 108.661 195.624 107.92C191.118 106.73 186.126 107.138 184.884 101.217C184.714 100.408 182.352 100.043 180.992 99.5026C179.019 98.7176 176.996 98.0465 175.064 97.171C171.522 95.565 168.179 93.2958 164.484 92.3001C158.774 90.7614 152.839 90.0609 146.666 89.0034C145.891 88.9998 145.448 88.9977 145.004 88.9956Z" fill="#B24E2E"/>
<path d="M230.382 109.996C228.455 108.946 226.903 107.895 225.349 106.849C221.189 104.05 217.009 101.281 212.907 98.4009C212.587 98.1763 212.811 97.1781 213.03 95.9368C213.766 94.2816 214.11 93.1287 214.764 92.193C218.727 86.5271 218.164 84.6893 211.846 82.0723C210.104 81.3507 208.594 80.0701 206.895 78.7234C205.78 77.0043 204.746 75.6077 202.984 73.2287C205.999 72.3912 208.5 71.6961 211.002 71.001C218.825 73.0231 226.649 75.038 234.469 77.0712C237.184 77.7773 239.861 78.6547 242.602 79.2339C248.886 80.5619 255.153 82.1584 261.513 82.8759C266.73 83.4643 271.705 83.7334 275.108 88.5092C275.826 89.5177 277.195 90.0629 278.585 90.9143C279.374 95.8097 277.486 98.4573 271.909 98.1526C267.581 98.0554 263.715 97.9614 259.337 98.1764C258.994 99.2346 258.917 100.213 259.37 100.697C263.057 104.635 267.499 108.016 267.486 114.288C267.484 115.112 269.669 115.942 270.841 116.769C269.9 116.881 268.96 116.993 267.67 117.125C261.066 115.593 254.81 114.042 248.13 111.949C245.863 109.401 244.309 109.704 243.001 111.993C240.602 111.684 238.204 111.375 235.331 110.802C234.238 110.362 233.62 110.186 233.001 110.01C232.253 110.006 231.505 110.002 230.382 109.996Z" fill="#B8512C"/>
<path d="M196.001 108.003C202.383 108.661 208.765 109.318 215.571 109.99C217.752 111.261 219.344 113.021 221.303 113.667C225.2 114.953 229.43 115.26 233.281 116.644C238.332 118.458 243.208 120.803 248.024 123.193C249.143 123.749 249.662 125.451 250.558 126.543C251.274 127.415 252.144 128.16 253.248 128.975C255.135 129.646 256.719 130.304 258.662 131.022C259.615 131.544 260.209 132.005 260.712 132.848C258.618 133.432 256.482 134.182 254.632 133.739C247.368 132.001 240.223 129.763 232.954 128.046C231.852 127.785 230.33 129.301 228.63 129.916C220.837 128.224 213.418 126.612 205.685 124.806C202.91 124.076 200.447 123.54 198.303 122.809C202.14 122.616 205.658 122.616 209.404 122.616C208.967 118.555 206.388 117.011 202.632 115.954C198.299 114.734 194.197 112.689 190.375 111.004C192.466 111.101 194.176 111.197 196.24 111.313C196.15 110.078 196.076 109.04 196.001 108.003Z" fill="#A6462D"/>
<path d="M243.297 112.111C244.308 109.704 245.863 109.401 247.85 111.709C246.528 112.083 245.061 112.156 243.297 112.111Z" fill="#B24E2E"/>
<path d="M233.219 110.187C233.616 110.186 234.234 110.362 234.929 110.766C234.483 110.784 233.962 110.574 233.219 110.187Z" fill="#B24E2E"/>
<path d="M211.065 70.6736C208.494 71.696 205.992 72.3911 202.978 73.2286C204.739 75.6076 205.773 77.0041 206.476 78.7171C202.547 79.8845 198.95 80.7353 195.264 81.7991C194.754 82.1692 194.331 82.3263 193.909 82.4834C193.375 78.6928 191.036 76.823 187.435 75.9417C182.132 74.6442 176.9 73.0615 171.623 71.658C166.902 70.4027 163.225 68.2283 159.897 64.1634C157.124 60.7756 152.079 59.1198 147.845 57.1055C145.513 55.9956 142.655 56.0092 140.282 54.9563C139.174 54.4646 138.656 52.6442 137.992 51.1233C146.12 53.0593 154.063 55.5651 162.15 57.4526C168.639 58.9669 175.304 59.7185 181.886 60.8352C184.314 61.2472 186.73 61.7354 189.57 62.2568C197.136 64.0455 204.284 65.7663 211.77 67.6607C211.784 68.6717 211.459 69.509 211.065 70.6736Z" fill="#B34E2F"/>
<path d="M34.0153 91.9303C31.3644 89.9758 29.0471 86.6992 24.9974 90.0333C21.8128 89.2944 18.7785 88.2149 15.3988 87.0224C14.8207 85.7014 14.588 84.4935 14.8088 83.2463C20.6807 87.0792 18.7122 80.6318 19.53 80.0482C28.7499 80.0482 36.986 79.8101 45.2003 80.1307C50.8145 80.3498 56.3982 81.3481 62.2977 82.1873C64.3984 82.9172 66.1969 83.4578 67.8839 84.2975C67.0125 88.4339 70.1459 88.4169 72.3741 89.0488C75.9211 90.0545 78.5255 91.642 77.5472 95.9375C74.0384 95.976 70.9842 95.9794 67.5937 95.9462C62.599 94.9403 57.9803 93.6123 53.2723 93.0891C46.8892 92.3799 40.4375 92.2874 34.0153 91.9303Z" fill="#9D4130"/>
<path d="M61.9954 81.9981C56.398 81.3482 50.8143 80.3498 45.2001 80.1307C36.9858 79.8101 28.7498 80.0482 19.5298 80.0482C18.712 80.6318 20.6805 87.0792 15.0078 82.9916C15.415 80.8118 16.0765 78.8474 17.2155 76.4573C20.6193 75.5635 23.5457 75.0953 27.6301 74.4418C24.9319 73.699 23.3823 73.277 21.8353 72.8456C19.7571 72.2659 18.992 71.2373 21.0055 69.1161C24.4 68.6745 27.4569 68.4362 30.5181 68.3523C34.9772 68.2301 39.4393 68.2189 44.215 67.946C51.1596 68.7637 57.806 69.7025 64.41 70.8792C66.6601 71.2801 68.8035 72.2796 71.027 73.3587C71.8075 75.4935 72.5567 77.2753 73.6204 79.8051C69.5054 80.5814 65.7504 81.2898 61.9954 81.9981Z" fill="#973D2F"/>
<path d="M70.9983 73.0056C68.8061 72.2796 66.6627 71.2801 64.4126 70.8792C57.8086 69.7025 51.1622 68.7637 43.858 67.8553C37.1121 66.0363 31.0405 64.0937 24.969 62.1512C20.5693 61.3027 18.1046 59.66 20.8696 54.6246C21.9833 52.5963 21.8887 49.9045 22.5367 47.1855C24.5115 50.138 27.4321 51.0998 30.9267 52.305C48.0403 58.2075 66.6017 60.1504 82.0621 70.5975C83.4986 71.5681 84.5785 73.0663 85.5284 74.6244C80.488 74.288 75.7431 73.6468 70.9983 73.0056Z" fill="#A8482D"/>
<path d="M24.8698 62.4724C31.0448 64.0938 37.1163 66.0363 43.5474 68.0696C39.4462 68.2189 34.984 68.2301 30.5249 68.3524C27.4638 68.4363 24.4069 68.6746 20.8122 68.9299C19.567 69.1044 18.8577 69.1928 18.1484 69.2812C20.3544 67.1187 22.5604 64.9561 24.8698 62.4724Z" fill="#65162A"/>
<path d="M18.1078 69.6665C18.8554 69.1929 19.5647 69.1045 20.4742 69.2023C18.9965 71.2374 19.7617 72.266 21.8398 72.8456C23.3868 73.2771 24.9365 73.6991 27.6347 74.4418C23.5503 75.0954 20.6239 75.5636 17.2893 76.1126C17.2773 74.1462 17.6734 72.0989 18.1078 69.6665Z" fill="#DB9058"/>
<path d="M229.008 129.995C230.336 129.301 231.858 127.785 232.96 128.046C240.229 129.763 247.374 132.001 254.638 133.739C256.488 134.182 258.624 133.432 260.943 133.039C269.246 135.606 269.13 135.578 267.13 143.842C266.532 146.313 266.774 148.987 266.467 151.923C258.152 150.521 250 148.764 241.426 147.004C241.004 147.001 240.977 146.514 241.233 146.081C241.996 143.767 242.503 141.886 243.397 140.007C245.712 140.18 247.641 140.351 249.699 140.534C245.134 132.084 236.759 131.661 229.008 129.995Z" fill="#AB492E"/>
<path d="M271.199 116.683C269.666 115.941 267.481 115.112 267.483 114.287C267.496 108.016 263.054 104.635 259.367 100.696C258.914 100.213 258.991 99.2344 258.987 98.2507C263.943 99.2992 268.734 100.582 273.814 101.997C275.165 107.287 276.542 112.502 271.199 116.683Z" fill="#B95532"/>
<path d="M21.0297 91.6228C21.0065 92.0411 20.7756 92.098 19.8266 92.1764C17.7255 92.4646 16.3425 92.7312 14.9595 92.9978C14.0677 94.1117 13.1758 95.2256 12.1408 96.6141C12.0197 95.8209 12.0416 94.7532 12.113 93.4009C15.049 92.498 17.9354 91.8797 21.0297 91.6228Z" fill="#DB9058"/>
<path d="M24.5524 90.6528C24.0298 91.0893 23.161 91.5874 22 91.9637C22.5406 91.466 23.3735 91.0902 24.5524 90.6528Z" fill="#9D4130"/>
<path d="M124.991 191.438C127.096 188.05 129.202 185.109 131.641 182.079C129.493 187.793 127.012 193.596 124.531 199.399C124.685 199.574 124.839 199.749 124.993 199.924C124.993 197.244 124.993 194.564 124.991 191.438Z" fill="#853232"/>
<path d="M137.605 180.01C137.991 180.755 138.009 181.503 138.037 182.625C136.292 182.667 134.536 182.334 132.391 181.99C133.746 181.324 135.492 180.668 137.605 180.01Z" fill="#853232"/>
<path d="M85 237.207C86.4486 232.782 87.9202 228.592 89.6789 224.204C88.6889 228.632 87.4132 233.26 86.1271 237.884C86.0861 238.032 85.9372 238.149 85.8386 238.281C85.5668 238.001 85.2949 237.721 85 237.207Z" fill="#A74633"/>
<path d="M90.1748 223.727C90.0056 222.951 90.0236 221.933 90.0742 220.54C90.1919 221.271 90.277 222.378 90.1748 223.727Z" fill="#A74633"/>
<path d="M115.966 233.02C115.944 233.04 115.95 232.852 115.989 232.905C116.029 232.957 115.988 233 115.966 233.02Z" fill="#8F3730"/>
<path d="M78.0018 95.9023C78.5255 91.642 75.921 90.0545 72.3741 89.0487C70.1458 88.4169 67.0125 88.4339 68.3138 84.2989C70.8278 84.2306 72.8357 84.2963 74.7667 84.716C85.9538 87.1474 97.1177 89.6856 108.301 92.134C111.511 92.8367 116.074 94.2627 116.947 90.2983C117.828 86.2999 112.675 86.3968 109.914 84.874C105.76 82.5832 101.944 79.6781 97.9844 77.0342C106.411 78.968 114.837 80.9018 123.726 83.2537C126.947 85.3198 129.647 87.0814 132.482 88.5862C135.729 90.3092 139.097 91.8043 143.536 93.9391C140.472 95.3749 138.735 96.1887 136.578 96.9979C132.814 97.761 129.003 93.8051 125.607 97.9891C121.474 97.6566 117.734 97.3333 113.57 97.0114C112.018 97.0367 110.89 97.0607 109.325 97.0847C102.202 96.8172 95.5154 96.5495 88.3817 96.2576C84.6239 96.123 81.3129 96.0126 78.0018 95.9023Z" fill="#A1422F"/>
<path d="M97.5767 77.0229C101.951 79.6781 105.767 82.5832 109.921 84.874C112.682 86.3968 117.835 86.2999 116.954 90.2983C116.081 94.2627 111.518 92.8367 108.308 92.134C97.1247 89.6856 85.9608 87.1474 74.7737 84.716C72.8427 84.2963 70.8348 84.2306 68.4324 83.9999C66.2039 83.4578 64.4054 82.9172 62.3047 82.1873C65.7575 81.2897 69.5125 80.5814 73.6276 79.8051C72.5638 77.2753 71.8146 75.4935 71.0341 73.3586C75.7477 73.6468 80.4925 74.288 85.6237 74.9575C89.7273 75.661 93.4447 76.3363 97.5767 77.0229Z" fill="#9B402F"/>
<path d="M137.001 97.0025C138.738 96.1887 140.475 95.3748 143.54 93.939C139.1 91.8042 135.732 90.3091 132.486 88.5861C129.65 87.0813 126.951 85.3198 124.094 83.3386C130.748 84.9497 137.5 86.8938 144.627 88.9168C145.445 88.9976 145.889 88.9997 146.873 89.2823C153.311 91.638 159.22 93.6822 165.098 95.8089C166.655 96.3721 168.12 97.1889 170.664 98.3711C168.577 99.2385 167.709 99.9335 166.878 99.8926C158.151 99.4633 149.426 98.9633 140.71 98.3493C139.449 98.2605 138.236 97.4689 137.001 97.0025Z" fill="#A6462D"/>
<path d="M193.52 82.4128C194.336 82.3265 194.758 82.1694 195.339 82.0913C196.336 83.1225 197.175 84.0748 197.712 85.0635C197.209 85.1295 197.008 85.159 196.807 85.1886C186.382 82.2462 175.916 79.4355 165.552 76.2902C161.922 75.1888 158.543 73.2644 154.984 71.3491C156.996 71.3483 159.142 71.4928 161.138 72.1171C171.821 75.4594 182.468 78.9214 193.52 82.4128Z" fill="#5A1514"/>
<path d="M133.773 63.878C126.964 63.0786 119.885 62.0281 112.261 60.6653C110.481 59.5604 109.246 58.7678 108.005 57.9868C108 57.9983 107.992 58.0216 107.992 58.0216C116.496 59.89 124.999 61.7585 133.773 63.878Z" fill="#5A1514"/>
<path d="M106.986 58.0213C106.008 57.8162 105.03 57.611 103.797 57.2822C104.835 57.3287 106.128 57.4987 107.707 57.8452C107.993 58.0216 108.001 57.9983 107.749 57.9851C107.327 57.9884 107.156 58.0049 106.986 58.0213Z" fill="#5A1514"/>
<path d="M194.009 138.987C185.594 137.384 177.179 135.782 168.377 134.102C157.454 131.714 146.905 129.456 136.385 127.074C126.505 124.837 116.654 122.469 106.555 119.785C107.878 117.939 109.436 116.468 111.067 114.694C111.758 113.599 112.377 112.806 113.136 112.322C117.161 114.223 120.929 116.285 124.96 117.293C130.567 118.695 136.392 119.193 142.085 120.284C149.743 121.753 157.364 123.418 165.249 125C165.498 125.001 165.996 125.002 166.26 125.186C167.349 125.579 168.174 125.788 169.35 126.144C179.133 128.528 188.566 130.764 197.998 133.257C198 133.684 198.002 133.855 198.002 134.27C198 134.514 197.997 135.001 197.672 135.086C196.235 136.443 195.122 137.715 194.009 138.987Z" fill="#A14231"/>
<path d="M165 124.999C157.363 123.418 149.743 121.753 142.085 120.284C136.392 119.193 130.566 118.695 124.96 117.293C120.928 116.285 117.161 114.222 113.063 111.977C111.234 109.549 109.617 107.774 108.001 105.999C106.749 104.862 105.499 103.723 104.006 101.938C102.088 100.533 100.464 99.5987 98.718 99.0661C96.8674 98.5017 94.9005 98.3188 93.4531 97.9571C99.2027 97.6582 104.484 97.3714 109.764 97.0845C110.893 97.0605 112.022 97.0365 113.699 97.3274C115.617 98.7947 116.809 100.386 118.387 101.026C126.332 104.246 134.43 107.091 142.373 110.318C148.738 112.904 155.114 115.558 161.148 118.809C163.005 119.81 163.747 122.878 165 124.999Z" fill="#983D31"/>
<path d="M92.9837 97.9694C94.8998 98.319 96.8667 98.502 98.7172 99.0663C100.463 99.5989 102.087 100.533 103.882 101.645C102.225 102.324 100.463 102.808 98.6738 102.945C90.5717 103.564 90.22 103.808 88.1517 111.633C87.2254 106.687 84.1311 105.466 78.9006 104.696C62.8315 102.33 46.9229 98.8715 30.9611 95.79C30.384 95.6786 29.9036 95.0658 29.3906 94.1456C29.6178 93.0751 29.8325 92.5456 30.0473 92.0162C31.106 91.9977 32.1647 91.9792 33.6208 91.9456C40.4405 92.2874 46.8922 92.38 53.2753 93.0892C57.9833 93.6123 62.602 94.9404 67.888 96.1989C75.2443 98.3914 81.9724 100.303 89.4086 98.0033C90.8651 97.9945 91.9244 97.982 92.9837 97.9694Z" fill="#90372F"/>
<path d="M110.998 114.997C109.439 116.468 107.88 117.939 106.174 119.701C100.939 120.411 100.577 116.56 100.236 113.165C99.7414 108.241 103.076 106.633 107.623 106.032C108.004 105.999 108.003 106 108.077 106.355C110.027 109.154 105.979 113.632 110.998 114.997Z" fill="#90372F"/>
<path d="M198.003 134.026C198.001 133.855 197.999 133.684 198.363 133.264C201.756 134.332 205.329 134.055 208.092 134.946C215.41 137.305 222.636 137.17 229.918 137.257C230.027 138.221 230.232 138.908 230.436 139.595C231.297 139.081 232.158 138.567 233.39 138.037C234.504 138.01 235.247 138 236.319 137.994C237.086 138.006 237.524 138.013 238.15 138.153C238.892 138.189 239.446 138.094 240.272 138.133C241.364 138.848 242.185 139.427 243.006 140.006C242.499 141.886 241.992 143.767 241.219 145.837C231.58 144.696 222.206 143.365 212.413 142.026C206.259 141.066 200.524 140.114 194.398 139.075C195.12 137.715 196.233 136.443 197.748 134.973C198.248 134.502 198.199 134.252 198.003 134.026Z" fill="#A74633"/>
<path d="M15.3281 92.9994C16.3478 92.7312 17.7308 92.4646 19.4811 92.241C18.4627 92.523 17.0771 92.762 15.3281 92.9994Z" fill="#772823"/>
<path d="M29.8096 92.084C29.8346 92.5456 29.6199 93.0751 29.2267 93.8306C29.222 93.4217 29.3959 92.7868 29.8096 92.084Z" fill="#9D4130"/>
<path d="M136.579 96.9979C138.234 97.469 139.446 98.2606 140.708 98.3495C149.424 98.9634 158.149 99.4634 166.876 99.8927C167.707 99.9336 168.574 99.2386 170.662 98.3712C168.118 97.189 166.653 96.3722 165.096 95.809C159.217 93.6823 153.309 91.6381 147.203 89.2839C152.834 90.0609 158.77 90.7614 164.48 92.3002C168.175 93.2959 171.517 95.565 175.06 97.171C176.991 98.0465 179.015 98.7176 180.988 99.5026C182.347 100.043 184.709 100.408 184.879 101.217C186.122 107.138 191.114 106.73 195.62 107.92C196.076 109.041 196.151 110.078 196.24 111.313C194.177 111.197 192.466 111.101 190.018 110.856C172.517 107.143 155.755 103.579 138.619 100.012C137.497 100.003 136.748 99.9968 135.684 99.7977C132.91 99.072 130.453 98.539 127.663 98.0042C126.887 98.0011 126.443 97.9997 126 97.9983C129.004 93.8052 132.815 97.761 136.579 96.9979Z" fill="#AD4A2F"/>
<path d="M198.008 85.0269C197.169 84.0746 196.331 83.1223 195.422 81.8781C198.949 80.7353 202.546 79.8845 206.557 79.0398C208.587 80.07 210.097 81.3506 211.839 82.0722C218.156 84.6892 218.72 86.527 214.757 92.1929C214.103 93.1286 213.759 94.2815 213.12 95.6474C210.843 96.2482 208.718 96.5356 206.07 96.6495C205.021 94.9754 204.601 93.4274 203.946 91.9857C203.016 89.9387 201.914 87.9701 200.677 85.7205C199.633 85.3101 198.796 85.1471 197.968 84.9982C197.978 85.0124 198.008 85.0269 198.008 85.0269Z" fill="#A1422F"/>
<path d="M200.887 85.968C201.916 87.9701 203.018 89.9388 203.948 91.9857C204.603 93.4274 205.024 94.9755 205.791 96.7541C199.91 98.7538 193.885 95.2898 192.475 89.3792C191.653 85.9322 194.457 86.2953 196.514 85.3534C197.005 85.1589 197.206 85.1294 197.708 85.0634C198.01 85.0269 197.98 85.0124 198.221 85.1917C199.271 85.57 200.079 85.769 200.887 85.968Z" fill="#9B402F"/>
<path d="M106.733 58.1993C107.154 58.0048 107.325 57.9884 107.752 57.9736C109.244 58.7679 110.48 59.5604 111.883 60.6297C109.454 61.1193 106.856 61.3319 104.258 61.5446C104.146 61.0487 104.034 60.5527 103.922 60.0568C104.775 59.4969 105.629 58.9371 106.733 58.1993Z" fill="#AE4B2E"/>
<path d="M136.005 99.9903C136.754 99.9968 137.502 100.003 138.78 100.32C142.887 102.27 146.525 103.787 150.026 105.574C156.901 109.083 163.403 113.582 170.605 116.125C179.441 119.245 188.836 120.782 197.99 123.003C200.453 123.54 202.916 124.076 205.823 125.131C207.891 126.678 209.392 128.178 211.164 128.643C215.285 129.724 219.577 130.145 223.725 131.144C226.78 131.88 230.497 132.275 230.016 136.982C222.64 137.17 215.413 137.305 208.096 134.946C205.333 134.055 201.76 134.332 198.367 133.008C188.568 130.764 179.136 128.528 169.326 125.862C167.965 125.289 166.982 125.146 165.998 125.002C165.998 125.002 165.501 125.001 165.252 125C163.75 122.878 163.007 119.81 161.151 118.809C155.117 115.558 148.741 112.905 142.375 110.318C134.433 107.091 126.335 104.246 118.389 101.026C116.811 100.386 115.62 98.7948 114.125 97.3262C117.74 97.3333 121.481 97.6566 125.613 97.9891C126.449 97.9996 126.892 98.0011 127.816 98.3176C130.867 99.0853 133.436 99.5378 136.005 99.9903Z" fill="#9B402F"/>
<path d="M198.303 122.809C188.831 120.782 179.436 119.245 170.599 116.125C163.397 113.582 156.895 109.083 150.02 105.574C146.519 103.787 142.881 102.27 139.148 100.323C155.755 103.579 172.517 107.143 189.637 110.855C194.197 112.689 198.299 114.733 202.632 115.954C206.388 117.011 208.967 118.555 209.404 122.616C205.658 122.616 202.14 122.616 198.303 122.809Z" fill="#A1422F"/>
<path d="M229.919 137.257C230.495 132.275 226.778 131.88 223.722 131.144C219.574 130.146 215.283 129.724 211.161 128.643C209.389 128.178 207.889 126.678 206.133 125.324C213.421 126.612 220.841 128.224 228.633 129.916C236.756 131.662 245.131 132.084 249.697 140.534C247.638 140.351 245.709 140.18 243.394 140.007C242.186 139.427 241.366 138.848 240.087 138.001C239.074 137.829 238.519 137.925 237.964 138.021C237.526 138.013 237.087 138.006 236.244 137.701C235.324 136.87 234.808 136.335 234.292 135.801C233.868 136.552 233.444 137.303 233.02 138.054C232.159 138.567 231.298 139.081 230.437 139.595C230.233 138.908 230.029 138.221 229.919 137.257Z" fill="#A1422F"/>
<path d="M89.0136 97.9997C81.9746 100.303 75.2465 98.3914 68.2266 96.2354C70.9895 95.9794 74.0437 95.9761 77.5525 95.9375C81.3182 96.0127 84.6292 96.123 88.4259 96.5411C88.9455 97.2324 88.9795 97.616 89.0136 97.9997Z" fill="#5A1514"/>
<path d="M89.4055 98.0033C88.9742 97.6161 88.9401 97.2324 88.8672 96.5654C95.5153 96.5496 102.202 96.8172 109.325 97.0848C104.48 97.3716 99.1989 97.6584 93.4493 97.9573C91.9213 97.982 90.862 97.9945 89.4055 98.0033Z" fill="#772823"/>
<path d="M111.07 114.694C105.979 113.633 110.027 109.154 108.078 106.354C109.621 107.774 111.237 109.549 112.927 111.669C112.381 112.806 111.761 113.599 111.07 114.694Z" fill="#8F3730"/>
<path d="M166.258 125.186C166.977 125.146 167.961 125.289 168.97 125.715C168.172 125.788 167.347 125.579 166.258 125.186Z" fill="#983D31"/>
<path d="M198.001 134.27C198.199 134.252 198.247 134.502 198.072 134.888C197.996 135.001 197.999 134.514 198.001 134.27Z" fill="#9B402F"/>
<path d="M233.391 138.037C233.444 137.303 233.868 136.552 234.292 135.801C234.808 136.335 235.323 136.869 235.915 137.696C235.248 137.999 234.505 138.01 233.391 138.037Z" fill="#9B402F"/>
<path d="M238.148 138.153C238.516 137.925 239.071 137.829 239.812 137.866C239.444 138.094 238.89 138.189 238.148 138.153Z" fill="#9B402F"/>
<path d="M135.688 99.7977C133.435 99.5378 130.866 99.0853 128.148 98.3193C130.457 98.5389 132.915 99.0719 135.688 99.7977Z" fill="#A1422F"/>
<path d="M200.678 85.7206C200.078 85.7691 199.27 85.5701 198.211 85.1776C198.797 85.1472 199.634 85.3102 200.678 85.7206Z" fill="#5A1514"/>
</g>
<defs>
<clipPath id="clip0_549_6243">
<rect width="285" height="288" fill="white"/>
</clipPath>
</defs>
</svg>
